<svg width="68" height="52" viewBox="0 0 68 52" fill="none" xmlns="http://www.w3.org/2000/svg">
  <g clip-path="url(#clip0_2027_146)">
    <path d="M58.5 26C58.5 40.17 47.0258 51.5593 33 51.5593C18.9742 51.5593 7.5 40.17 7.5 26C7.5 11.83 18.9742 0.440674 33 0.440674C47.0258 0.440674 58.5 11.83 58.5 26Z" fill="#32353E" stroke="#FEFEFE" />
    <path d="M48.3291 44.0825H17.8291L18.8291 44.9639H47.3291L48.3291 44.0825Z" fill="#B1DAEF" />
    <path d="M15.3291 41.8792L15.8291 42.7605H49.8291L50.8291 41.8792H15.3291Z" fill="#B1DAEF" />
    <path d="M49.8291 38.3537H51.3291V22.9299H49.8291V38.3537Z" fill="#B1DAEF" />
    <path d="M48.8291 38.3537H46.8291V22.9299H48.8291V38.3537Z" fill="#B1DAEF" />
    <path d="M43.8291 38.3537H45.8291V23.3706H43.8291V38.3537Z" fill="#B1DAEF" />
    <path d="M40.8291 38.3538H42.8291V13.2351H40.8291V38.3538Z" fill="#B1DAEF" />
    <path d="M38.3291 38.3537H39.8291V13.6758H38.3291V38.3537Z" fill="#B1DAEF" />
    <path d="M35.8291 38.3537H37.3291V13.8558H35.8291V38.3537Z" fill="#B1DAEF" />
    <path d="M32.3291 14.1165V28.6588L30.8291 27.7775V14.1165H32.3291Z" fill="#B1DAEF" />
    <path d="M33.3291 14.1165V29.0995L34.8291 29.9809V14.1165H33.3291Z" fill="#B1DAEF" />
    <path d="M22.8291 47.6079H43.3291L45.3291 46.2859H20.8291L22.8291 47.6079Z" fill="#B1DAEF" />
    <path d="M25.8291 48.4893H40.3291C40.8291 48.9299 35.4958 49.6645 32.8291 49.8113C27.6291 49.8113 25.9958 48.9299 25.8291 48.4893Z" fill="#B1DAEF" />
    <path d="M51.3291 40.5572L52.3291 39.2352H33.8291V33.947H32.8291V40.5572H51.3291Z" fill="#EFEFEE" />
    <path d="M31.8291 40.5572H30.3291V33.947H31.8291V40.5572Z" fill="#EFEFEE" />
    <path d="M29.3291 33.947V40.5572H27.8291V33.947H29.3291Z" fill="#EFEFEE" />
    <path d="M25.3291 40.5572H26.8291V33.947H25.3291V40.5572Z" fill="#EFEFEE" />
    <path d="M24.3291 33.947V40.5572H22.8291V33.947H24.3291Z" fill="#EFEFEE" />
    <path d="M21.8291 33.947V40.5572H20.3291V33.947H21.8291Z" fill="#EFEFEE" />
    <path d="M19.3291 40.5572V33.947H17.8291V39.2352H12.8291L14.3291 40.5572H19.3291Z" fill="#EFEFEE" />
    <path d="M17.8291 31.3028V32.6248H33.8291V30.8621L26.3291 27.7773L17.8291 31.3028Z" fill="#EFEFEE" />
    <path d="M17.3291 28.6587H15.8291V22.4893H17.3291V28.6587Z" fill="#EFEFEE" />
    <path d="M18.3291 22.4893V28.6587H19.8291V22.4893H18.3291Z" fill="#EFEFEE" />
    <path d="M20.3291 22.4893V28.6587H21.8291V22.4893H20.3291Z" fill="#EFEFEE" />
    <path d="M23.8291 27.3367L22.8291 28.2181V22.4893H23.8291V27.3367Z" fill="#EFEFEE" />
    <path d="M24.8291 22.4893V26.896L25.8291 26.4554V22.4893H24.8291Z" fill="#EFEFEE" />
    <path d="M9.8291 32.6249H10.8291V28.6588H15.3291V21.1672C15.7291 18.6994 18.8291 16.9074 20.3291 16.3198V12.3537H21.3291V16.7605C24.5291 16.4079 26.6624 19.5515 27.3291 21.1672V26.4554L29.3291 27.3367V13.6757L42.8291 12.3537L46.3291 13.6757V22.4893L52.3291 22.0486L54.3291 22.93V37.0316C55.9291 34.9164 56.6624 30.5684 56.8291 28.6588C58.0291 23.3706 55.3291 16.4667 53.8291 13.6757C49.0291 3.80455 37.8291 1.63051 32.8291 1.77738C23.6291 1.42484 16.3291 7.5062 13.8291 10.591C7.8291 17.9944 8.66244 28.3649 9.8291 32.6249Z" fill="#E5EEF5" />
    <path d="M26.5 29.0847L21 31.2881H31.5L26.5 29.0847Z" fill="#32353E" />
  </g>
  <defs>
    <clipPath id="clip0_2027_146">
      <rect width="68" height="52" fill="white" />
    </clipPath>
  </defs>
</svg>