<svg width="68" height="74" viewBox="0 0 68 74" fill="none" xmlns="http://www.w3.org/2000/svg">
  <g clip-path="url(#clip0_2027_146)">
    <path d="M58.5 26C58.5 40.17 47.0258 51.5593 33 51.5593C18.9742 51.5593 7.5 40.17 7.5 26C7.5 11.83 18.9742 0.440674 33 0.440674C47.0258 0.440674 58.5 11.83 58.5 26Z" fill="#32353E" stroke="#FEFEFE" />
    <path d="M48.3291 44.0825H17.8291L18.8291 44.9639H47.3291L48.3291 44.0825Z" fill="#B1DAEF" />
    <path d="M15.3291 41.8792L15.8291 42.7605H49.8291L50.8291 41.8792H15.3291Z" fill="#B1DAEF" />
    <path d="M49.8291 38.3537H51.3291V22.9299H49.8291V38.3537Z" fill="#B1DAEF" />
    <path d="M48.8291 38.3537H46.8291V22.9299H48.8291V38.3537Z" fill="#B1DAEF" />
    <path d="M43.8291 38.3537H45.8291V23.3706H43.8291V38.3537Z" fill="#B1DAEF" />
    <path d="M40.8291 38.3538H42.8291V13.2351H40.8291V38.3538Z" fill="#B1DAEF" />
    <path d="M38.3291 38.3537H39.8291V13.6758H38.3291V38.3537Z" fill="#B1DAEF" />
    <path d="M35.8291 38.3537H37.3291V13.8558H35.8291V38.3537Z" fill="#B1DAEF" />
    <path d="M32.3291 14.1165V28.6588L30.8291 27.7775V14.1165H32.3291Z" fill="#B1DAEF" />
    <path d="M33.3291 14.1165V29.0995L34.8291 29.9809V14.1165H33.3291Z" fill="#B1DAEF" />
    <path d="M22.8291 47.6079H43.3291L45.3291 46.2859H20.8291L22.8291 47.6079Z" fill="#B1DAEF" />
    <path d="M25.8291 48.4893H40.3291C40.8291 48.9299 35.4958 49.6645 32.8291 49.8113C27.6291 49.8113 25.9958 48.9299 25.8291 48.4893Z" fill="#B1DAEF" />
    <path d="M51.3291 40.5572L52.3291 39.2352H33.8291V33.947H32.8291V40.5572H51.3291Z" fill="#EFEFEE" />
    <path d="M31.8291 40.5572H30.3291V33.947H31.8291V40.5572Z" fill="#EFEFEE" />
    <path d="M29.3291 33.947V40.5572H27.8291V33.947H29.3291Z" fill="#EFEFEE" />
    <path d="M25.3291 40.5572H26.8291V33.947H25.3291V40.5572Z" fill="#EFEFEE" />
    <path d="M24.3291 33.947V40.5572H22.8291V33.947H24.3291Z" fill="#EFEFEE" />
    <path d="M21.8291 33.947V40.5572H20.3291V33.947H21.8291Z" fill="#EFEFEE" />
    <path d="M19.3291 40.5572V33.947H17.8291V39.2352H12.8291L14.3291 40.5572H19.3291Z" fill="#EFEFEE" />
    <path d="M17.8291 31.3028V32.6248H33.8291V30.8621L26.3291 27.7773L17.8291 31.3028Z" fill="#EFEFEE" />
    <path d="M17.3291 28.6587H15.8291V22.4893H17.3291V28.6587Z" fill="#EFEFEE" />
    <path d="M18.3291 22.4893V28.6587H19.8291V22.4893H18.3291Z" fill="#EFEFEE" />
    <path d="M20.3291 22.4893V28.6587H21.8291V22.4893H20.3291Z" fill="#EFEFEE" />
    <path d="M23.8291 27.3367L22.8291 28.2181V22.4893H23.8291V27.3367Z" fill="#EFEFEE" />
    <path d="M24.8291 22.4893V26.896L25.8291 26.4554V22.4893H24.8291Z" fill="#EFEFEE" />
    <path d="M9.8291 32.6249H10.8291V28.6588H15.3291V21.1672C15.7291 18.6994 18.8291 16.9074 20.3291 16.3198V12.3537H21.3291V16.7605C24.5291 16.4079 26.6624 19.5515 27.3291 21.1672V26.4554L29.3291 27.3367V13.6757L42.8291 12.3537L46.3291 13.6757V22.4893L52.3291 22.0486L54.3291 22.93V37.0316C55.9291 34.9164 56.6624 30.5684 56.8291 28.6588C58.0291 23.3706 55.3291 16.4667 53.8291 13.6757C49.0291 3.80455 37.8291 1.63051 32.8291 1.77738C23.6291 1.42484 16.3291 7.5062 13.8291 10.591C7.8291 17.9944 8.66244 28.3649 9.8291 32.6249Z" fill="#E5EEF5" />
    <path d="M26.5 29.0847L21 31.2881H31.5L26.5 29.0847Z" fill="#32353E" />
    <path d="M3.77586 58.0696V58.8427H1.4243V63.1605H0.502075V58.0696H3.77586ZM8.2492 60.615C8.2492 61.1636 8.14646 61.6334 7.94096 62.0245C7.73713 62.4139 7.45872 62.7122 7.10574 62.9194C6.75441 63.1265 6.35585 63.2301 5.91007 63.2301C5.46428 63.2301 5.0649 63.1265 4.71191 62.9194C4.36059 62.7106 4.08218 62.4114 3.87669 62.022C3.67285 61.6309 3.57093 61.1619 3.57093 60.615C3.57093 60.0665 3.67285 59.5975 3.87669 59.2081C4.08218 58.817 4.36059 58.5179 4.71191 58.3107C5.0649 58.1036 5.46428 58 5.91007 58C6.35585 58 6.75441 58.1036 7.10574 58.3107C7.45872 58.5179 7.73713 58.817 7.94096 59.2081C8.14646 59.5975 8.2492 60.0665 8.2492 60.615ZM7.322 60.615C7.322 60.2289 7.26151 59.9033 7.14054 59.6381C7.02122 59.3713 6.8555 59.17 6.64338 59.0341C6.43126 58.8965 6.18682 58.8278 5.91007 58.8278C5.63332 58.8278 5.38888 58.8965 5.17676 59.0341C4.96464 59.17 4.79809 59.3713 4.67711 59.6381C4.5578 59.9033 4.49814 60.2289 4.49814 60.615C4.49814 61.0012 4.5578 61.3276 4.67711 61.5944C4.79809 61.8596 4.96464 62.0609 5.17676 62.1985C5.38888 62.3344 5.63332 62.4023 5.91007 62.4023C6.18682 62.4023 6.43126 62.3344 6.64338 62.1985C6.8555 62.0609 7.02122 61.8596 7.14054 61.5944C7.26151 61.3276 7.322 61.0012 7.322 60.615ZM8.49109 63.1605V58.0696H10.4001C10.7912 58.0696 11.1194 58.1425 11.3845 58.2883C11.6513 58.4342 11.8527 58.6347 11.9886 58.8899C12.1261 59.1435 12.1949 59.4318 12.1949 59.755C12.1949 60.0814 12.1261 60.3714 11.9886 60.625C11.851 60.8785 11.648 61.0782 11.3795 61.2241C11.1111 61.3682 10.7805 61.4403 10.3877 61.4403H9.12249V60.6822H10.2634C10.4921 60.6822 10.6794 60.6424 10.8252 60.5628C10.971 60.4833 11.0788 60.3739 11.1484 60.2347C11.2196 60.0955 11.2553 59.9356 11.2553 59.755C11.2553 59.5743 11.2196 59.4152 11.1484 59.2777C11.0788 59.1401 10.9702 59.0333 10.8227 58.957C10.6769 58.8791 10.4888 58.8402 10.2585 58.8402H9.41332V63.1605H8.49109ZM16.9149 60.615C16.9149 61.1636 16.8122 61.6334 16.6067 62.0245C16.4029 62.4139 16.1245 62.7122 15.7715 62.9194C15.4202 63.1265 15.0216 63.2301 14.5758 63.2301C14.13 63.2301 13.7306 63.1265 13.3777 62.9194C13.0263 62.7106 12.7479 62.4114 12.5424 62.022C12.3386 61.6309 12.2367 61.1619 12.2367 60.615C12.2367 60.0665 12.3386 59.5975 12.5424 59.2081C12.7479 58.817 13.0263 58.5179 13.3777 58.3107C13.7306 58.1036 14.13 58 14.5758 58C15.0216 58 15.4202 58.1036 15.7715 58.3107C16.1245 58.5179 16.4029 58.817 16.6067 59.2081C16.8122 59.5975 16.9149 60.0665 16.9149 60.615ZM15.9877 60.615C15.9877 60.2289 15.9273 59.9033 15.8063 59.6381C15.687 59.3713 15.5212 59.17 15.3091 59.0341C15.097 58.8965 14.8526 58.8278 14.5758 58.8278C14.2991 58.8278 14.0546 58.8965 13.8425 59.0341C13.6304 59.17 13.4638 59.3713 13.3429 59.6381C13.2235 59.9033 13.1639 60.2289 13.1639 60.615C13.1639 61.0012 13.2235 61.3276 13.3429 61.5944C13.4638 61.8596 13.6304 62.0609 13.8425 62.1985C14.0546 62.3344 14.2991 62.4023 14.5758 62.4023C14.8526 62.4023 15.097 62.3344 15.3091 62.1985C15.5212 62.0609 15.687 61.8596 15.8063 61.5944C15.9273 61.3276 15.9877 61.0012 15.9877 60.615ZM16.8262 64.3885V62.4073H17.1668C17.2811 62.3162 17.388 62.1877 17.4874 62.022C17.5869 61.8563 17.6714 61.6292 17.741 61.3409C17.8106 61.0525 17.8587 60.6797 17.8852 60.2223L18.0194 58.0696H21.2733V62.4073H21.8401V64.3835H20.9551V63.1605H17.7112V64.3885H16.8262ZM18.2406 62.4073H20.3884V58.8427H18.8497L18.7701 60.2223C18.7486 60.5686 18.7138 60.8785 18.6657 61.152C18.6177 61.4254 18.5572 61.6665 18.4842 61.8753C18.4113 62.0825 18.3301 62.2598 18.2406 62.4073ZM26.319 59.7873H25.3893C25.3628 59.6348 25.3139 59.4998 25.2427 59.3821C25.1714 59.2628 25.0827 59.1617 24.9767 59.0788C24.8706 58.996 24.7496 58.9338 24.6137 58.8924C24.4795 58.8493 24.3345 58.8278 24.1787 58.8278C23.902 58.8278 23.6567 58.8974 23.4429 59.0366C23.2292 59.1741 23.0618 59.3763 22.9408 59.6431C22.8198 59.9083 22.7593 60.2322 22.7593 60.615C22.7593 61.0045 22.8198 61.3326 22.9408 61.5994C23.0634 61.8646 23.2308 62.0651 23.4429 62.201C23.6567 62.3352 23.9012 62.4023 24.1762 62.4023C24.3287 62.4023 24.4712 62.3824 24.6038 62.3427C24.738 62.3012 24.8582 62.2408 24.9642 62.1612C25.072 62.0817 25.1623 61.9839 25.2352 61.8679C25.3098 61.7519 25.3611 61.6193 25.3893 61.4702L26.319 61.4751C26.2842 61.7171 26.2088 61.9441 26.0928 62.1562C25.9785 62.3684 25.8285 62.5556 25.6429 62.718C25.4573 62.8788 25.2402 63.0047 24.9916 63.0959C24.743 63.1854 24.4671 63.2301 24.1638 63.2301C23.7164 63.2301 23.317 63.1265 22.9657 62.9194C22.6143 62.7122 22.3376 62.4131 22.1354 62.022C21.9332 61.6309 21.8321 61.1619 21.8321 60.615C21.8321 60.0665 21.9341 59.5975 22.1379 59.2081C22.3417 58.817 22.6193 58.5179 22.9706 58.3107C23.322 58.1036 23.7197 58 24.1638 58C24.4472 58 24.7107 58.0398 24.9543 58.1193C25.1979 58.1989 25.415 58.3157 25.6056 58.4698C25.7962 58.6223 25.9528 58.8095 26.0754 59.0316C26.1997 59.252 26.2809 59.5039 26.319 59.7873ZM29.5836 63.1605L27.9082 60.9357H27.4558V63.1605H26.5336V58.0696H27.4558V60.1626H27.687L29.4966 58.0696H30.6326L28.6216 60.3913L30.7196 63.1605H29.5836ZM31.3698 63.1605H30.3854L32.1777 58.0696H33.3162L35.1109 63.1605H34.1266L32.7668 59.1136H32.7271L31.3698 63.1605ZM31.4021 61.1644H34.0868V61.9052H31.4021V61.1644ZM38.91 63.1605H37.9853V58.8402H37.1401C36.9114 58.8402 36.7233 58.8742 36.5758 58.9421C36.43 59.0084 36.3215 59.1062 36.2502 59.2354C36.1806 59.363 36.1458 59.5172 36.1458 59.6978C36.1458 59.8784 36.1806 60.0309 36.2502 60.1552C36.3198 60.2778 36.4275 60.3714 36.5734 60.4361C36.7208 60.499 36.9081 60.5305 37.1351 60.5305H38.3731V61.2962H37.0109C36.6198 61.2962 36.29 61.2315 36.0215 61.1023C35.753 60.9713 35.5492 60.7866 35.41 60.5479C35.2725 60.3076 35.2037 60.0243 35.2037 59.6978C35.2037 59.373 35.2716 59.0888 35.4075 58.8452C35.5451 58.5999 35.7472 58.4093 36.0141 58.2734C36.2809 58.1375 36.609 58.0696 36.9984 58.0696H38.91V63.1605ZM36.2775 60.8537H37.2843L36.0464 63.1605H35.0172L36.2775 60.8537ZM44.5394 58.0696V63.1605H43.6246V58.8352H41.3973V63.1605H40.4826V58.0696H44.5394ZM45.6662 63.1605H44.6818L46.4741 58.0696H47.6126L49.4073 63.1605H48.423L47.0632 59.1136H47.0235L45.6662 63.1605ZM45.6985 61.1644H48.3832V61.9052H45.6985V61.1644ZM49.4479 58.0696H50.5764L52.0878 61.7585H52.1475L53.6588 58.0696H54.7874V63.1605H53.9024V59.663H53.8552L52.4482 63.1456H51.787L50.3801 59.6555H50.3328V63.1605H49.4479V58.0696ZM58.9202 63.1605H57.9954V58.8402H57.1503C56.9216 58.8402 56.7335 58.8742 56.586 58.9421C56.4402 59.0084 56.3316 59.1062 56.2604 59.2354C56.1908 59.363 56.156 59.5172 56.156 59.6978C56.156 59.8784 56.1908 60.0309 56.2604 60.1552C56.33 60.2778 56.4377 60.3714 56.5835 60.4361C56.731 60.499 56.9183 60.5305 57.1453 60.5305H58.3832V61.2962H57.021C56.6299 61.2962 56.3001 61.2315 56.0317 61.1023C55.7632 60.9713 55.5594 60.7866 55.4202 60.5479C55.2826 60.3076 55.2138 60.0243 55.2138 59.6978C55.2138 59.373 55.2818 59.0888 55.4177 58.8452C55.5552 58.5999 55.7574 58.4093 56.0242 58.2734C56.291 58.1375 56.6191 58.0696 57.0086 58.0696H58.9202V63.1605ZM56.2877 60.8537H57.2945L56.0565 63.1605H55.0274L56.2877 60.8537ZM59.0657 58.8427V58.0696H63.1275V58.8427H61.554V63.1605H60.6392V58.8427H59.0657ZM63.9045 60.0359H65.1971C65.5865 60.0359 65.9205 60.0997 66.1989 60.2273C66.4789 60.3532 66.6935 60.5314 66.8427 60.7617C66.9918 60.9921 67.0664 61.263 67.0664 61.5746C67.0664 61.8878 66.9918 62.1637 66.8427 62.4023C66.6935 62.6393 66.4789 62.8249 66.1989 62.9592C65.9205 63.0934 65.5865 63.1605 65.1971 63.1605H63.2905V58.0696H64.2152V62.4048H65.1971C65.4026 62.4048 65.5766 62.3659 65.7191 62.288C65.8616 62.2101 65.9693 62.1074 66.0423 61.9797C66.1168 61.8521 66.1541 61.7138 66.1541 61.5646C66.1541 61.3492 66.0713 61.1661 65.9055 61.0153C65.7415 60.8628 65.5053 60.7866 65.1971 60.7866H63.9045V60.0359Z" fill="white" />
    <path d="M14.1648 72.0694C14.1648 72.3045 14.1207 72.5058 14.0327 72.6734C13.9453 72.8403 13.826 72.9682 13.6747 73.057C13.5241 73.1457 13.3533 73.1901 13.1623 73.1901C12.9712 73.1901 12.8001 73.1457 12.6488 73.057C12.4982 72.9675 12.3789 72.8393 12.2908 72.6724C12.2035 72.5048 12.1598 72.3038 12.1598 72.0694C12.1598 71.8343 12.2035 71.6333 12.2908 71.4664C12.3789 71.2988 12.4982 71.1706 12.6488 71.0818C12.8001 70.993 12.9712 70.9487 13.1623 70.9487C13.3533 70.9487 13.5241 70.993 13.6747 71.0818C13.826 71.1706 13.9453 71.2988 14.0327 71.4664C14.1207 71.6333 14.1648 71.8343 14.1648 72.0694ZM13.7674 72.0694C13.7674 71.9039 13.7415 71.7643 13.6896 71.6507C13.6385 71.5364 13.5675 71.4501 13.4766 71.3918C13.3857 71.3329 13.2809 71.3034 13.1623 71.3034C13.0437 71.3034 12.9389 71.3329 12.848 71.3918C12.7571 71.4501 12.6857 71.5364 12.6339 71.6507C12.5827 71.7643 12.5572 71.9039 12.5572 72.0694C12.5572 72.2349 12.5827 72.3748 12.6339 72.4891C12.6857 72.6028 12.7571 72.6891 12.848 72.748C12.9389 72.8063 13.0437 72.8354 13.1623 72.8354C13.2809 72.8354 13.3857 72.8063 13.4766 72.748C13.5675 72.6891 13.6385 72.6028 13.6896 72.4891C13.7415 72.3748 13.7674 72.2349 13.7674 72.0694ZM14.2684 73.1603V70.9785H15.6715V71.3098H14.6637V71.8212H15.0845C15.2514 71.8212 15.3945 71.8485 15.5138 71.9032C15.6339 71.9572 15.7258 72.0335 15.7897 72.1322C15.8537 72.231 15.8856 72.3471 15.8856 72.4806C15.8856 72.6148 15.8537 72.7331 15.7897 72.8354C15.7258 72.9369 15.6339 73.0165 15.5138 73.074C15.3945 73.1315 15.2514 73.1603 15.0845 73.1603H14.2684ZM14.6637 72.8364H15.0845C15.1726 72.8364 15.2471 72.8197 15.3082 72.7864C15.3693 72.753 15.4155 72.709 15.4467 72.6543C15.4787 72.5996 15.4946 72.5403 15.4946 72.4764C15.4946 72.384 15.4591 72.3055 15.3881 72.2409C15.3178 72.1756 15.2166 72.1429 15.0845 72.1429H14.6637V72.8364ZM18.7515 72.8439L18.7216 73.6738H18.3562V73.1603H18.1677V72.8439H18.7515ZM16.0189 70.9785H16.4077V72.8322H17.081V70.9785H17.4677V72.8322H18.1357V70.9785H18.5224V73.1603H16.0189V70.9785ZM18.8027 73.1603V70.9785H20.2217V71.3098H19.1979V71.9021H20.1482V72.2335H19.1979V72.829H20.2302V73.1603H18.8027ZM22.2225 71.7146H21.824C21.8127 71.6493 21.7917 71.5914 21.7612 71.541C21.7306 71.4898 21.6926 71.4465 21.6472 71.411C21.6017 71.3755 21.5499 71.3489 21.4916 71.3311C21.4341 71.3126 21.372 71.3034 21.3052 71.3034C21.1866 71.3034 21.0815 71.3332 20.9899 71.3929C20.8982 71.4518 20.8265 71.5385 20.7747 71.6528C20.7228 71.7665 20.6969 71.9053 20.6969 72.0694C20.6969 72.2363 20.7228 72.3769 20.7747 72.4913C20.8272 72.6049 20.899 72.6908 20.9899 72.7491C21.0815 72.8066 21.1862 72.8354 21.3041 72.8354C21.3695 72.8354 21.4306 72.8268 21.4874 72.8098C21.5449 72.792 21.5964 72.7661 21.6419 72.732C21.688 72.6979 21.7267 72.656 21.758 72.6063C21.7899 72.5566 21.812 72.4998 21.824 72.4359L22.2225 72.438C22.2076 72.5417 22.1752 72.639 22.1255 72.7299C22.0765 72.8208 22.0122 72.9011 21.9327 72.9707C21.8532 73.0396 21.7601 73.0935 21.6536 73.1326C21.547 73.171 21.4288 73.1901 21.2988 73.1901C21.1071 73.1901 20.9359 73.1457 20.7853 73.057C20.6348 72.9682 20.5161 72.84 20.4295 72.6724C20.3429 72.5048 20.2995 72.3038 20.2995 72.0694C20.2995 71.8343 20.3432 71.6333 20.4306 71.4664C20.5179 71.2988 20.6369 71.1706 20.7875 71.0818C20.938 70.993 21.1085 70.9487 21.2988 70.9487C21.4203 70.9487 21.5332 70.9657 21.6376 70.9998C21.742 71.0339 21.835 71.084 21.9167 71.15C21.9984 71.2153 22.0655 71.2956 22.1181 71.3908C22.1713 71.4852 22.2061 71.5932 22.2225 71.7146ZM22.2185 71.3098V70.9785H23.9593V71.3098H23.2849V73.1603H22.8929V71.3098H22.2185ZM24.0249 73.1603V70.9785H24.8601C25.0178 70.9785 25.1488 71.0033 25.2532 71.0531C25.3583 71.1021 25.4368 71.1692 25.4887 71.2544C25.5412 71.3396 25.5675 71.4362 25.5675 71.5442C25.5675 71.633 25.5505 71.709 25.5164 71.7722C25.4823 71.8347 25.4365 71.8854 25.3789 71.9245C25.3214 71.9636 25.2571 71.9916 25.1861 72.0087V72.03C25.2635 72.0342 25.3377 72.058 25.4088 72.1014C25.4805 72.144 25.5391 72.2043 25.5845 72.2825C25.63 72.3606 25.6527 72.455 25.6527 72.5658C25.6527 72.6788 25.6254 72.7803 25.5707 72.8705C25.516 72.96 25.4336 73.0307 25.3235 73.0825C25.2135 73.1344 25.075 73.1603 24.9081 73.1603H24.0249ZM24.4201 72.83H24.8452C24.9887 72.83 25.092 72.8027 25.1552 72.748C25.2191 72.6926 25.2511 72.6216 25.2511 72.5349C25.2511 72.4703 25.2351 72.4121 25.2032 72.3602C25.1712 72.3077 25.1257 72.2665 25.0668 72.2366C25.0078 72.2061 24.9375 72.1908 24.8559 72.1908H24.4201V72.83ZM24.4201 71.9064H24.8111C24.8793 71.9064 24.9407 71.894 24.9954 71.8691C25.0501 71.8435 25.0931 71.8077 25.1243 71.7615C25.1563 71.7146 25.1723 71.6592 25.1723 71.5953C25.1723 71.5108 25.1424 71.4412 25.0828 71.3865C25.0238 71.3318 24.9361 71.3045 24.8196 71.3045H24.4201V71.9064ZM25.7266 73.1603V70.9785H27.1456V71.3098H26.1218V71.9021H27.0721V72.2335H26.1218V72.829H27.1541V73.1603H25.7266ZM27.2788 73.1603V70.9785H27.6741V71.9021H28.6851V70.9785H29.0814V73.1603H28.6851V72.2335H27.6741V73.1603H27.2788ZM29.2413 73.1603V70.9785H29.6365V71.9021H30.6475V70.9785H31.0438V73.1603H30.6475V72.2335H29.6365V73.1603H29.2413ZM31.4839 73.1603H31.062L31.8301 70.9785H32.318L33.0872 73.1603H32.6653L32.0826 71.4259H32.0655L31.4839 73.1603ZM31.4977 72.3048H32.6483V72.6223H31.4977V72.3048ZM34.7154 73.1603H34.3191V71.3087H33.9568C33.8588 71.3087 33.7782 71.3233 33.715 71.3524C33.6525 71.3808 33.606 71.4227 33.5755 71.4781C33.5456 71.5328 33.5307 71.5989 33.5307 71.6763C33.5307 71.7537 33.5456 71.819 33.5755 71.8723C33.6053 71.9249 33.6514 71.965 33.7139 71.9927C33.7772 72.0197 33.8574 72.0332 33.9547 72.0332H34.4853V72.3613H33.9014C33.7338 72.3613 33.5925 72.3336 33.4774 72.2782C33.3624 72.2221 33.275 72.1429 33.2154 72.0406C33.1564 71.9376 33.1269 71.8162 33.1269 71.6763C33.1269 71.5371 33.1561 71.4153 33.2143 71.3109C33.2733 71.2058 33.3599 71.1241 33.4742 71.0658C33.5886 71.0076 33.7292 70.9785 33.8961 70.9785H34.7154V73.1603ZM33.5872 72.1717H34.0186L33.4881 73.1603H33.047L33.5872 72.1717ZM37.2974 72.0694C37.2974 72.3045 37.2533 72.5058 37.1652 72.6734C37.0779 72.8403 36.9586 72.9682 36.8073 73.057C36.6567 73.1457 36.4859 73.1901 36.2949 73.1901C36.1038 73.1901 35.9326 73.1457 35.7814 73.057C35.6308 72.9675 35.5115 72.8393 35.4234 72.6724C35.3361 72.5048 35.2924 72.3038 35.2924 72.0694C35.2924 71.8343 35.3361 71.6333 35.4234 71.4664C35.5115 71.2988 35.6308 71.1706 35.7814 71.0818C35.9326 70.993 36.1038 70.9487 36.2949 70.9487C36.4859 70.9487 36.6567 70.993 36.8073 71.0818C36.9586 71.1706 37.0779 71.2988 37.1652 71.4664C37.2533 71.6333 37.2974 71.8343 37.2974 72.0694ZM36.9 72.0694C36.9 71.9039 36.8741 71.7643 36.8222 71.6507C36.7711 71.5364 36.7 71.4501 36.6091 71.3918C36.5182 71.3329 36.4135 71.3034 36.2949 71.3034C36.1763 71.3034 36.0715 71.3329 35.9806 71.3918C35.8897 71.4501 35.8183 71.5364 35.7665 71.6507C35.7153 71.7643 35.6898 71.9039 35.6898 72.0694C35.6898 72.2349 35.7153 72.3748 35.7665 72.4891C35.8183 72.6028 35.8897 72.6891 35.9806 72.748C36.0715 72.8063 36.1763 72.8354 36.2949 72.8354C36.4135 72.8354 36.5182 72.8063 36.6091 72.748C36.7 72.6891 36.7711 72.6028 36.8222 72.4891C36.8741 72.3748 36.9 72.2349 36.9 72.0694ZM37.401 73.1603V70.9785H38.2192C38.3868 70.9785 38.5274 71.0097 38.6411 71.0722C38.7554 71.1347 38.8417 71.2207 38.9 71.33C38.9589 71.4387 38.9884 71.5623 38.9884 71.7008C38.9884 71.8407 38.9589 71.965 38.9 72.0737C38.841 72.1823 38.754 72.2679 38.6389 72.3304C38.5239 72.3922 38.3822 72.4231 38.2139 72.4231H37.6716V72.0982H38.1606C38.2586 72.0982 38.3389 72.0811 38.4014 72.047C38.4639 72.0129 38.51 71.9661 38.5399 71.9064C38.5704 71.8467 38.5857 71.7782 38.5857 71.7008C38.5857 71.6234 38.5704 71.5552 38.5399 71.4962C38.51 71.4373 38.4635 71.3915 38.4003 71.3588C38.3378 71.3254 38.2572 71.3087 38.1585 71.3087H37.7963V73.1603H37.401ZM40.4647 70.9785V71.3098H39.4569V73.1603H39.0617V70.9785H40.4647ZM40.5455 73.1603H40.1236L40.8917 70.9785H41.3797L42.1488 73.1603H41.727L41.1442 71.4259H41.1272L40.5455 73.1603ZM40.5594 72.3048H41.7099V72.6223H40.5594V72.3048ZM42.1662 73.1603V70.9785H42.5615V71.9021H43.5725V70.9785H43.9688V73.1603H43.5725V72.2335H42.5615V73.1603H42.1662ZM44.1286 70.9785H44.5207V72.4657H44.5409L45.5668 70.9785H45.9216V73.1603H45.5264V71.6741H45.5083L44.4791 73.1603H44.1286V70.9785ZM46.844 73.1901C46.6906 73.1901 46.5542 73.1639 46.4349 73.1113C46.3163 73.0587 46.2225 72.9856 46.1536 72.8918C46.0848 72.7981 46.0482 72.6898 46.0439 72.5669H46.4445C46.448 72.6259 46.4676 72.6773 46.5031 72.7214C46.5386 72.7647 46.5858 72.7984 46.6448 72.8226C46.7037 72.8467 46.7698 72.8588 46.8429 72.8588C46.921 72.8588 46.9903 72.8453 47.0507 72.8183C47.111 72.7906 47.1583 72.7523 47.1924 72.7033C47.2264 72.6543 47.2431 72.5978 47.2424 72.5339C47.2431 72.4678 47.2261 72.4096 47.1913 72.3592C47.1565 72.3087 47.1061 72.2693 47.04 72.2409C46.9747 72.2125 46.8958 72.1983 46.8035 72.1983H46.6107V71.8936H46.8035C46.8795 71.8936 46.9459 71.8805 47.0027 71.8542C47.0603 71.8279 47.1054 71.791 47.138 71.7434C47.1707 71.6951 47.1867 71.6393 47.186 71.5761C47.1867 71.5143 47.1728 71.4607 47.1444 71.4153C47.1167 71.3691 47.0773 71.3332 47.0262 71.3077C46.9757 71.2821 46.9164 71.2693 46.8482 71.2693C46.7815 71.2693 46.7197 71.2814 46.6629 71.3055C46.6061 71.3297 46.5603 71.3641 46.5254 71.4089C46.4906 71.4529 46.4722 71.5055 46.4701 71.5665H46.0897C46.0926 71.4444 46.1277 71.3371 46.1952 71.2448C46.2634 71.1518 46.3543 71.0793 46.4679 71.0275C46.5816 70.9749 46.709 70.9487 46.8504 70.9487C46.996 70.9487 47.1224 70.976 47.2296 71.0307C47.3376 71.0847 47.421 71.1575 47.48 71.2491C47.5389 71.3407 47.5684 71.4419 47.5684 71.5527C47.5691 71.6756 47.5329 71.7786 47.4598 71.8616C47.3873 71.9447 47.2921 71.9991 47.1742 72.0246V72.0417C47.3277 72.063 47.4452 72.1198 47.5269 72.2121C47.6093 72.3038 47.6501 72.4178 47.6494 72.5541C47.6494 72.6763 47.6146 72.7857 47.545 72.8822C47.4761 72.9781 47.3809 73.0534 47.2595 73.1081C47.1387 73.1628 47.0002 73.1901 46.844 73.1901ZM48.0466 73.1603H47.6247L48.3928 70.9785H48.8807L49.6499 73.1603H49.228L48.6453 71.4259H48.6282L48.0466 73.1603ZM48.0604 72.3048H49.211V72.6223H48.0604V72.3048ZM51.6861 72.83L51.6573 73.6759H51.2738V73.1603H51.1204V72.83H51.6861ZM49.6673 73.1603V70.9785H50.0465V72.8322H51.0266V70.9785H51.4091V73.1603H49.6673ZM51.7381 70.9785H52.1301V72.4657H52.1504L53.1763 70.9785H53.5311V73.1603H53.1358V71.6741H53.1177L52.0886 73.1603H51.7381V70.9785ZM55.3025 73.1603H54.9062V71.3087H54.544C54.446 71.3087 54.3654 71.3233 54.3022 71.3524C54.2397 71.3808 54.1931 71.4227 54.1626 71.4781C54.1328 71.5328 54.1179 71.5989 54.1179 71.6763C54.1179 71.7537 54.1328 71.819 54.1626 71.8723C54.1924 71.9249 54.2386 71.965 54.3011 71.9927C54.3643 72.0197 54.4446 72.0332 54.5419 72.0332H55.0724V72.3613H54.4886C54.321 72.3613 54.1796 72.3336 54.0646 72.2782C53.9495 72.2221 53.8622 72.1429 53.8025 72.0406C53.7436 71.9376 53.7141 71.8162 53.7141 71.6763C53.7141 71.5371 53.7432 71.4153 53.8015 71.3109C53.8604 71.2058 53.947 71.1241 54.0614 71.0658C54.1757 71.0076 54.3164 70.9785 54.4833 70.9785H55.3025V73.1603ZM54.1743 72.1717H54.6058L54.0752 73.1603H53.6342L54.1743 72.1717Z" fill="white" />
    <path d="M68 66.1604H0V68.1604H68V66.1604Z" fill="white" />
    <path d="M11 71.1604H7V72.1604H11V71.1604Z" fill="white" />
    <path d="M61 71.1604H57V72.1604H61V71.1604Z" fill="white" />
  </g>
  <defs>
    <clipPath id="clip0_2027_146">
      <rect width="68" height="74" fill="white" />
    </clipPath>
  </defs>
</svg>