<svg width="68" height="81" viewBox="0 0 68 81" fill="none" xmlns="http://www.w3.org/2000/svg">
<path d="M3.77592 64.9091V65.6822H1.42436V70H0.502131V64.9091H3.77592ZM8.24926 67.4545C8.24926 68.0031 8.14652 68.4729 7.94102 68.864C7.73719 69.2534 7.45878 69.5517 7.1058 69.7589C6.75447 69.966 6.35591 70.0696 5.91013 70.0696C5.46434 70.0696 5.06496 69.966 4.71197 69.7589C4.36065 69.5501 4.08224 69.2509 3.87675 68.8615C3.67291 68.4704 3.57099 68.0014 3.57099 67.4545C3.57099 66.906 3.67291 66.437 3.87675 66.0476C4.08224 65.6565 4.36065 65.3574 4.71197 65.1502C5.06496 64.9431 5.46434 64.8395 5.91013 64.8395C6.35591 64.8395 6.75447 64.9431 7.1058 65.1502C7.45878 65.3574 7.73719 65.6565 7.94102 66.0476C8.14652 66.437 8.24926 66.906 8.24926 67.4545ZM7.32206 67.4545C7.32206 67.0684 7.26157 66.7428 7.1406 66.4776C7.02128 66.2108 6.85556 66.0095 6.64344 65.8736C6.43132 65.736 6.18688 65.6673 5.91013 65.6673C5.63338 65.6673 5.38894 65.736 5.17682 65.8736C4.9647 66.0095 4.79815 66.2108 4.67717 66.4776C4.55786 66.7428 4.4982 67.0684 4.4982 67.4545C4.4982 67.8407 4.55786 68.1671 4.67717 68.4339C4.79815 68.6991 4.9647 68.9004 5.17682 69.038C5.38894 69.1739 5.63338 69.2418 5.91013 69.2418C6.18688 69.2418 6.43132 69.1739 6.64344 69.038C6.85556 68.9004 7.02128 68.6991 7.1406 68.4339C7.26157 68.1671 7.32206 67.8407 7.32206 67.4545ZM8.49115 70V64.9091H10.4002C10.7913 64.9091 11.1195 64.982 11.3846 65.1278C11.6514 65.2737 11.8528 65.4742 11.9887 65.7294C12.1262 65.983 12.195 66.2713 12.195 66.5945C12.195 66.9209 12.1262 67.2109 11.9887 67.4645C11.8511 67.718 11.6481 67.9177 11.3796 68.0636C11.1112 68.2077 10.7806 68.2798 10.3878 68.2798H9.12255V67.5217H10.2635C10.4922 67.5217 10.6795 67.4819 10.8253 67.4023C10.9711 67.3228 11.0789 67.2134 11.1485 67.0742C11.2197 66.935 11.2554 66.7751 11.2554 66.5945C11.2554 66.4138 11.2197 66.2547 11.1485 66.1172C11.0789 65.9796 10.9703 65.8728 10.8228 65.7965C10.677 65.7186 10.4889 65.6797 10.2586 65.6797H9.41338V70H8.49115ZM16.915 67.4545C16.915 68.0031 16.8123 68.4729 16.6068 68.864C16.403 69.2534 16.1246 69.5517 15.7716 69.7589C15.4203 69.966 15.0217 70.0696 14.5759 70.0696C14.1301 70.0696 13.7307 69.966 13.3778 69.7589C13.0264 69.5501 12.748 69.2509 12.5425 68.8615C12.3387 68.4704 12.2368 68.0014 12.2368 67.4545C12.2368 66.906 12.3387 66.437 12.5425 66.0476C12.748 65.6565 13.0264 65.3574 13.3778 65.1502C13.7307 64.9431 14.1301 64.8395 14.5759 64.8395C15.0217 64.8395 15.4203 64.9431 15.7716 65.1502C16.1246 65.3574 16.403 65.6565 16.6068 66.0476C16.8123 66.437 16.915 66.906 16.915 67.4545ZM15.9878 67.4545C15.9878 67.0684 15.9274 66.7428 15.8064 66.4776C15.6871 66.2108 15.5213 66.0095 15.3092 65.8736C15.0971 65.736 14.8527 65.6673 14.5759 65.6673C14.2992 65.6673 14.0547 65.736 13.8426 65.8736C13.6305 66.0095 13.4639 66.2108 13.343 66.4776C13.2236 66.7428 13.164 67.0684 13.164 67.4545C13.164 67.8407 13.2236 68.1671 13.343 68.4339C13.4639 68.6991 13.6305 68.9004 13.8426 69.038C14.0547 69.1739 14.2992 69.2418 14.5759 69.2418C14.8527 69.2418 15.0971 69.1739 15.3092 69.038C15.5213 68.9004 15.6871 68.6991 15.8064 68.4339C15.9274 68.1671 15.9878 67.8407 15.9878 67.4545ZM16.8263 71.228V69.2468H17.1669C17.2812 69.1557 17.3881 69.0272 17.4875 68.8615C17.587 68.6958 17.6715 68.4687 17.7411 68.1804C17.8107 67.892 17.8588 67.5192 17.8853 67.0618L18.0195 64.9091H21.2734V69.2468H21.8402V71.223H20.9552V70H17.7113V71.228H16.8263ZM18.2407 69.2468H20.3885V65.6822H18.8498L18.7702 67.0618C18.7487 67.4081 18.7139 67.718 18.6658 67.9915C18.6178 68.2649 18.5573 68.506 18.4843 68.7148C18.4114 68.922 18.3302 69.0993 18.2407 69.2468ZM26.3191 66.6268H25.3894C25.3629 66.4743 25.314 66.3393 25.2428 66.2216C25.1715 66.1023 25.0828 66.0012 24.9768 65.9183C24.8707 65.8355 24.7497 65.7733 24.6138 65.7319C24.4796 65.6888 24.3346 65.6673 24.1788 65.6673C23.9021 65.6673 23.6568 65.7369 23.443 65.8761C23.2293 66.0136 23.0619 66.2158 22.9409 66.4826C22.8199 66.7478 22.7594 67.0717 22.7594 67.4545C22.7594 67.844 22.8199 68.1721 22.9409 68.4389C23.0635 68.7041 23.2309 68.9046 23.443 69.0405C23.6568 69.1747 23.9013 69.2418 24.1763 69.2418C24.3288 69.2418 24.4713 69.2219 24.6039 69.1822C24.7381 69.1407 24.8583 69.0803 24.9643 69.0007C25.0721 68.9212 25.1624 68.8234 25.2353 68.7074C25.3099 68.5914 25.3612 68.4588 25.3894 68.3097L26.3191 68.3146C26.2843 68.5566 26.2089 68.7836 26.0929 68.9957C25.9786 69.2079 25.8286 69.3951 25.643 69.5575C25.4574 69.7183 25.2403 69.8442 24.9917 69.9354C24.7431 70.0249 24.4672 70.0696 24.1639 70.0696C23.7165 70.0696 23.3171 69.966 22.9658 69.7589C22.6144 69.5517 22.3377 69.2526 22.1355 68.8615C21.9333 68.4704 21.8322 68.0014 21.8322 67.4545C21.8322 66.906 21.9342 66.437 22.138 66.0476C22.3418 65.6565 22.6194 65.3574 22.9707 65.1502C23.3221 64.9431 23.7198 64.8395 24.1639 64.8395C24.4473 64.8395 24.7108 64.8793 24.9544 64.9588C25.198 65.0384 25.4151 65.1552 25.6057 65.3093C25.7963 65.4618 25.9529 65.649 26.0755 65.8711C26.1998 66.0915 26.281 66.3434 26.3191 66.6268ZM29.5837 70L27.9083 67.7752H27.4559V70H26.5337V64.9091H27.4559V67.0021H27.6871L29.4967 64.9091H30.6327L28.6217 67.2308L30.7197 70H29.5837ZM31.3699 70H30.3855L32.1778 64.9091H33.3163L35.111 70H34.1267L32.7669 65.9531H32.7272L31.3699 70ZM31.4022 68.0039H34.0869V68.7447H31.4022V68.0039ZM38.9101 70H37.9854V65.6797H37.1402C36.9115 65.6797 36.7234 65.7137 36.5759 65.7816C36.4301 65.8479 36.3216 65.9457 36.2503 66.0749C36.1807 66.2025 36.1459 66.3567 36.1459 66.5373C36.1459 66.7179 36.1807 66.8704 36.2503 66.9947C36.3199 67.1173 36.4276 67.2109 36.5735 67.2756C36.7209 67.3385 36.9082 67.37 37.1352 67.37H38.3732V68.1357H37.011C36.6199 68.1357 36.2901 68.071 36.0216 67.9418C35.7531 67.8108 35.5493 67.6261 35.4101 67.3874C35.2726 67.1471 35.2038 66.8638 35.2038 66.5373C35.2038 66.2125 35.2717 65.9283 35.4076 65.6847C35.5452 65.4394 35.7473 65.2488 36.0142 65.1129C36.281 64.977 36.6091 64.9091 36.9985 64.9091H38.9101V70ZM36.2776 67.6932H37.2844L36.0465 70H35.0173L36.2776 67.6932ZM44.5395 64.9091V70H43.6247V65.6747H41.3974V70H40.4827V64.9091H44.5395ZM45.6663 70H44.6819L46.4742 64.9091H47.6127L49.4074 70H48.4231L47.0633 65.9531H47.0236L45.6663 70ZM45.6986 68.0039H48.3833V68.7447H45.6986V68.0039ZM49.448 64.9091H50.5765L52.0879 68.598H52.1476L53.6589 64.9091H54.7875V70H53.9025V66.5025H53.8553L52.4483 69.9851H51.7871L50.3802 66.495H50.3329V70H49.448V64.9091ZM58.9203 70H57.9955V65.6797H57.1504C56.9217 65.6797 56.7336 65.7137 56.5861 65.7816C56.4403 65.8479 56.3317 65.9457 56.2605 66.0749C56.1909 66.2025 56.1561 66.3567 56.1561 66.5373C56.1561 66.7179 56.1909 66.8704 56.2605 66.9947C56.3301 67.1173 56.4378 67.2109 56.5836 67.2756C56.7311 67.3385 56.9184 67.37 57.1454 67.37H58.3833V68.1357H57.0211C56.63 68.1357 56.3002 68.071 56.0318 67.9418C55.7633 67.8108 55.5595 67.6261 55.4203 67.3874C55.2827 67.1471 55.2139 66.8638 55.2139 66.5373C55.2139 66.2125 55.2819 65.9283 55.4178 65.6847C55.5553 65.4394 55.7575 65.2488 56.0243 65.1129C56.2911 64.977 56.6192 64.9091 57.0087 64.9091H58.9203V70ZM56.2878 67.6932H57.2946L56.0566 70H55.0275L56.2878 67.6932ZM59.0658 65.6822V64.9091H63.1276V65.6822H61.5541V70H60.6393V65.6822H59.0658ZM63.9046 66.8754H65.1972C65.5866 66.8754 65.9206 66.9392 66.199 67.0668C66.479 67.1927 66.6936 67.3709 66.8428 67.6012C66.9919 67.8316 67.0665 68.1025 67.0665 68.4141C67.0665 68.7273 66.9919 69.0032 66.8428 69.2418C66.6936 69.4788 66.479 69.6644 66.199 69.7987C65.9206 69.9329 65.5866 70 65.1972 70H63.2906V64.9091H64.2153V69.2443H65.1972C65.4027 69.2443 65.5767 69.2054 65.7192 69.1275C65.8617 69.0496 65.9694 68.9469 66.0424 68.8192C66.1169 68.6916 66.1542 68.5533 66.1542 68.4041C66.1542 68.1887 66.0714 68.0056 65.9056 67.8548C65.7416 67.7023 65.5054 67.6261 65.1972 67.6261H63.9046V66.8754Z" fill="white"/>
<path d="M14.1648 78.9091C14.1648 79.1442 14.1207 79.3455 14.0327 79.5131C13.9453 79.68 13.826 79.8079 13.6747 79.8967C13.5241 79.9854 13.3533 80.0298 13.1623 80.0298C12.9712 80.0298 12.8001 79.9854 12.6488 79.8967C12.4982 79.8072 12.3789 79.679 12.2908 79.5121C12.2035 79.3445 12.1598 79.1435 12.1598 78.9091C12.1598 78.674 12.2035 78.473 12.2908 78.3061C12.3789 78.1385 12.4982 78.0103 12.6488 77.9215C12.8001 77.8327 12.9712 77.7884 13.1623 77.7884C13.3533 77.7884 13.5241 77.8327 13.6747 77.9215C13.826 78.0103 13.9453 78.1385 14.0327 78.3061C14.1207 78.473 14.1648 78.674 14.1648 78.9091ZM13.7674 78.9091C13.7674 78.7436 13.7415 78.604 13.6896 78.4904C13.6385 78.3761 13.5675 78.2898 13.4766 78.2315C13.3857 78.1726 13.2809 78.1431 13.1623 78.1431C13.0437 78.1431 12.9389 78.1726 12.848 78.2315C12.7571 78.2898 12.6857 78.3761 12.6339 78.4904C12.5827 78.604 12.5572 78.7436 12.5572 78.9091C12.5572 79.0746 12.5827 79.2145 12.6339 79.3288C12.6857 79.4425 12.7571 79.5288 12.848 79.5877C12.9389 79.646 13.0437 79.6751 13.1623 79.6751C13.2809 79.6751 13.3857 79.646 13.4766 79.5877C13.5675 79.5288 13.6385 79.4425 13.6896 79.3288C13.7415 79.2145 13.7674 79.0746 13.7674 78.9091ZM14.2684 80V77.8182H15.6715V78.1495H14.6637V78.6609H15.0845C15.2514 78.6609 15.3945 78.6882 15.5138 78.7429C15.6339 78.7969 15.7258 78.8732 15.7897 78.9719C15.8537 79.0707 15.8856 79.1868 15.8856 79.3203C15.8856 79.4545 15.8537 79.5728 15.7897 79.6751C15.7258 79.7766 15.6339 79.8562 15.5138 79.9137C15.3945 79.9712 15.2514 80 15.0845 80H14.2684ZM14.6637 79.6761H15.0845C15.1726 79.6761 15.2471 79.6594 15.3082 79.6261C15.3693 79.5927 15.4155 79.5487 15.4467 79.494C15.4787 79.4393 15.4946 79.38 15.4946 79.3161C15.4946 79.2237 15.4591 79.1452 15.3881 79.0806C15.3178 79.0153 15.2166 78.9826 15.0845 78.9826H14.6637V79.6761ZM18.7515 79.6836L18.7216 80.5135H18.3562V80H18.1677V79.6836H18.7515ZM16.0189 77.8182H16.4077V79.6719H17.081V77.8182H17.4677V79.6719H18.1357V77.8182H18.5224V80H16.0189V77.8182ZM18.8027 80V77.8182H20.2217V78.1495H19.1979V78.7418H20.1482V79.0732H19.1979V79.6687H20.2302V80H18.8027ZM22.2225 78.5543H21.824C21.8127 78.489 21.7917 78.4311 21.7612 78.3807C21.7306 78.3295 21.6926 78.2862 21.6472 78.2507C21.6017 78.2152 21.5499 78.1886 21.4916 78.1708C21.4341 78.1523 21.372 78.1431 21.3052 78.1431C21.1866 78.1431 21.0815 78.1729 20.9899 78.2326C20.8982 78.2915 20.8265 78.3782 20.7747 78.4925C20.7228 78.6062 20.6969 78.745 20.6969 78.9091C20.6969 79.076 20.7228 79.2166 20.7747 79.331C20.8272 79.4446 20.899 79.5305 20.9899 79.5888C21.0815 79.6463 21.1862 79.6751 21.3041 79.6751C21.3695 79.6751 21.4306 79.6665 21.4874 79.6495C21.5449 79.6317 21.5964 79.6058 21.6419 79.5717C21.688 79.5376 21.7267 79.4957 21.758 79.446C21.7899 79.3963 21.812 79.3395 21.824 79.2756L22.2225 79.2777C22.2076 79.3814 22.1752 79.4787 22.1255 79.5696C22.0765 79.6605 22.0122 79.7408 21.9327 79.8104C21.8532 79.8793 21.7601 79.9332 21.6536 79.9723C21.547 80.0107 21.4288 80.0298 21.2988 80.0298C21.1071 80.0298 20.9359 79.9854 20.7853 79.8967C20.6348 79.8079 20.5161 79.6797 20.4295 79.5121C20.3429 79.3445 20.2995 79.1435 20.2995 78.9091C20.2995 78.674 20.3432 78.473 20.4306 78.3061C20.5179 78.1385 20.6369 78.0103 20.7875 77.9215C20.938 77.8327 21.1085 77.7884 21.2988 77.7884C21.4203 77.7884 21.5332 77.8054 21.6376 77.8395C21.742 77.8736 21.835 77.9237 21.9167 77.9897C21.9984 78.055 22.0655 78.1353 22.1181 78.2305C22.1713 78.3249 22.2061 78.4329 22.2225 78.5543ZM22.2185 78.1495V77.8182H23.9593V78.1495H23.2849V80H22.8929V78.1495H22.2185ZM24.0249 80V77.8182H24.8601C25.0178 77.8182 25.1488 77.843 25.2532 77.8928C25.3583 77.9418 25.4368 78.0089 25.4887 78.0941C25.5412 78.1793 25.5675 78.2759 25.5675 78.3839C25.5675 78.4727 25.5505 78.5487 25.5164 78.6119C25.4823 78.6744 25.4365 78.7251 25.3789 78.7642C25.3214 78.8033 25.2571 78.8313 25.1861 78.8484V78.8697C25.2635 78.8739 25.3377 78.8977 25.4088 78.9411C25.4805 78.9837 25.5391 79.044 25.5845 79.1222C25.63 79.2003 25.6527 79.2947 25.6527 79.4055C25.6527 79.5185 25.6254 79.62 25.5707 79.7102C25.516 79.7997 25.4336 79.8704 25.3235 79.9222C25.2135 79.9741 25.075 80 24.9081 80H24.0249ZM24.4201 79.6697H24.8452C24.9887 79.6697 25.092 79.6424 25.1552 79.5877C25.2191 79.5323 25.2511 79.4613 25.2511 79.3746C25.2511 79.31 25.2351 79.2518 25.2032 79.1999C25.1712 79.1474 25.1257 79.1062 25.0668 79.0763C25.0078 79.0458 24.9375 79.0305 24.8559 79.0305H24.4201V79.6697ZM24.4201 78.7461H24.8111C24.8793 78.7461 24.9407 78.7337 24.9954 78.7088C25.0501 78.6832 25.0931 78.6474 25.1243 78.6012C25.1563 78.5543 25.1723 78.4989 25.1723 78.435C25.1723 78.3505 25.1424 78.2809 25.0828 78.2262C25.0238 78.1715 24.9361 78.1442 24.8196 78.1442H24.4201V78.7461ZM25.7266 80V77.8182H27.1456V78.1495H26.1218V78.7418H27.0721V79.0732H26.1218V79.6687H27.1541V80H25.7266ZM27.2788 80V77.8182H27.6741V78.7418H28.6851V77.8182H29.0814V80H28.6851V79.0732H27.6741V80H27.2788ZM29.2413 80V77.8182H29.6365V78.7418H30.6475V77.8182H31.0438V80H30.6475V79.0732H29.6365V80H29.2413ZM31.4839 80H31.062L31.8301 77.8182H32.318L33.0872 80H32.6653L32.0826 78.2656H32.0655L31.4839 80ZM31.4977 79.1445H32.6483V79.462H31.4977V79.1445ZM34.7154 80H34.3191V78.1484H33.9568C33.8588 78.1484 33.7782 78.163 33.715 78.1921C33.6525 78.2205 33.606 78.2624 33.5755 78.3178C33.5456 78.3725 33.5307 78.4386 33.5307 78.516C33.5307 78.5934 33.5456 78.6587 33.5755 78.712C33.6053 78.7646 33.6514 78.8047 33.7139 78.8324C33.7772 78.8594 33.8574 78.8729 33.9547 78.8729H34.4853V79.201H33.9014C33.7338 79.201 33.5925 79.1733 33.4774 79.1179C33.3624 79.0618 33.275 78.9826 33.2154 78.8803C33.1564 78.7773 33.1269 78.6559 33.1269 78.516C33.1269 78.3768 33.1561 78.255 33.2143 78.1506C33.2733 78.0455 33.3599 77.9638 33.4742 77.9055C33.5886 77.8473 33.7292 77.8182 33.8961 77.8182H34.7154V80ZM33.5872 79.0114H34.0186L33.4881 80H33.047L33.5872 79.0114ZM37.2974 78.9091C37.2974 79.1442 37.2533 79.3455 37.1652 79.5131C37.0779 79.68 36.9586 79.8079 36.8073 79.8967C36.6567 79.9854 36.4859 80.0298 36.2949 80.0298C36.1038 80.0298 35.9326 79.9854 35.7814 79.8967C35.6308 79.8072 35.5115 79.679 35.4234 79.5121C35.3361 79.3445 35.2924 79.1435 35.2924 78.9091C35.2924 78.674 35.3361 78.473 35.4234 78.3061C35.5115 78.1385 35.6308 78.0103 35.7814 77.9215C35.9326 77.8327 36.1038 77.7884 36.2949 77.7884C36.4859 77.7884 36.6567 77.8327 36.8073 77.9215C36.9586 78.0103 37.0779 78.1385 37.1652 78.3061C37.2533 78.473 37.2974 78.674 37.2974 78.9091ZM36.9 78.9091C36.9 78.7436 36.8741 78.604 36.8222 78.4904C36.7711 78.3761 36.7 78.2898 36.6091 78.2315C36.5182 78.1726 36.4135 78.1431 36.2949 78.1431C36.1763 78.1431 36.0715 78.1726 35.9806 78.2315C35.8897 78.2898 35.8183 78.3761 35.7665 78.4904C35.7153 78.604 35.6898 78.7436 35.6898 78.9091C35.6898 79.0746 35.7153 79.2145 35.7665 79.3288C35.8183 79.4425 35.8897 79.5288 35.9806 79.5877C36.0715 79.646 36.1763 79.6751 36.2949 79.6751C36.4135 79.6751 36.5182 79.646 36.6091 79.5877C36.7 79.5288 36.7711 79.4425 36.8222 79.3288C36.8741 79.2145 36.9 79.0746 36.9 78.9091ZM37.401 80V77.8182H38.2192C38.3868 77.8182 38.5274 77.8494 38.6411 77.9119C38.7554 77.9744 38.8417 78.0604 38.9 78.1697C38.9589 78.2784 38.9884 78.402 38.9884 78.5405C38.9884 78.6804 38.9589 78.8047 38.9 78.9134C38.841 79.022 38.754 79.1076 38.6389 79.1701C38.5239 79.2319 38.3822 79.2628 38.2139 79.2628H37.6716V78.9379H38.1606C38.2586 78.9379 38.3389 78.9208 38.4014 78.8867C38.4639 78.8526 38.51 78.8058 38.5399 78.7461C38.5704 78.6864 38.5857 78.6179 38.5857 78.5405C38.5857 78.4631 38.5704 78.3949 38.5399 78.3359C38.51 78.277 38.4635 78.2312 38.4003 78.1985C38.3378 78.1651 38.2572 78.1484 38.1585 78.1484H37.7963V80H37.401ZM40.4647 77.8182V78.1495H39.4569V80H39.0617V77.8182H40.4647ZM40.5455 80H40.1236L40.8917 77.8182H41.3797L42.1488 80H41.727L41.1442 78.2656H41.1272L40.5455 80ZM40.5594 79.1445H41.7099V79.462H40.5594V79.1445ZM42.1662 80V77.8182H42.5615V78.7418H43.5725V77.8182H43.9688V80H43.5725V79.0732H42.5615V80H42.1662ZM44.1286 77.8182H44.5207V79.3054H44.5409L45.5668 77.8182H45.9216V80H45.5264V78.5138H45.5083L44.4791 80H44.1286V77.8182ZM46.844 80.0298C46.6906 80.0298 46.5542 80.0036 46.4349 79.951C46.3163 79.8984 46.2225 79.8253 46.1536 79.7315C46.0848 79.6378 46.0482 79.5295 46.0439 79.4066H46.4445C46.448 79.4656 46.4676 79.517 46.5031 79.5611C46.5386 79.6044 46.5858 79.6381 46.6448 79.6623C46.7037 79.6864 46.7698 79.6985 46.8429 79.6985C46.921 79.6985 46.9903 79.685 47.0507 79.658C47.111 79.6303 47.1583 79.592 47.1924 79.543C47.2264 79.494 47.2431 79.4375 47.2424 79.3736C47.2431 79.3075 47.2261 79.2493 47.1913 79.1989C47.1565 79.1484 47.1061 79.109 47.04 79.0806C46.9747 79.0522 46.8958 79.038 46.8035 79.038H46.6107V78.7333H46.8035C46.8795 78.7333 46.9459 78.7202 47.0027 78.6939C47.0603 78.6676 47.1054 78.6307 47.138 78.5831C47.1707 78.5348 47.1867 78.479 47.186 78.4158C47.1867 78.354 47.1728 78.3004 47.1444 78.255C47.1167 78.2088 47.0773 78.1729 47.0262 78.1474C46.9757 78.1218 46.9164 78.109 46.8482 78.109C46.7815 78.109 46.7197 78.1211 46.6629 78.1452C46.6061 78.1694 46.5603 78.2038 46.5254 78.2486C46.4906 78.2926 46.4722 78.3452 46.4701 78.4062H46.0897C46.0926 78.2841 46.1277 78.1768 46.1952 78.0845C46.2634 77.9915 46.3543 77.919 46.4679 77.8672C46.5816 77.8146 46.709 77.7884 46.8504 77.7884C46.996 77.7884 47.1224 77.8157 47.2296 77.8704C47.3376 77.9244 47.421 77.9972 47.48 78.0888C47.5389 78.1804 47.5684 78.2816 47.5684 78.3924C47.5691 78.5153 47.5329 78.6183 47.4598 78.7013C47.3873 78.7844 47.2921 78.8388 47.1742 78.8643V78.8814C47.3277 78.9027 47.4452 78.9595 47.5269 79.0518C47.6093 79.1435 47.6501 79.2575 47.6494 79.3938C47.6494 79.516 47.6146 79.6254 47.545 79.7219C47.4761 79.8178 47.3809 79.8931 47.2595 79.9478C47.1387 80.0025 47.0002 80.0298 46.844 80.0298ZM48.0466 80H47.6247L48.3928 77.8182H48.8807L49.6499 80H49.228L48.6453 78.2656H48.6282L48.0466 80ZM48.0604 79.1445H49.211V79.462H48.0604V79.1445ZM51.6861 79.6697L51.6573 80.5156H51.2738V80H51.1204V79.6697H51.6861ZM49.6673 80V77.8182H50.0465V79.6719H51.0266V77.8182H51.4091V80H49.6673ZM51.7381 77.8182H52.1301V79.3054H52.1504L53.1763 77.8182H53.5311V80H53.1358V78.5138H53.1177L52.0886 80H51.7381V77.8182ZM55.3025 80H54.9062V78.1484H54.544C54.446 78.1484 54.3654 78.163 54.3022 78.1921C54.2397 78.2205 54.1931 78.2624 54.1626 78.3178C54.1328 78.3725 54.1179 78.4386 54.1179 78.516C54.1179 78.5934 54.1328 78.6587 54.1626 78.712C54.1924 78.7646 54.2386 78.8047 54.3011 78.8324C54.3643 78.8594 54.4446 78.8729 54.5419 78.8729H55.0724V79.201H54.4886C54.321 79.201 54.1796 79.1733 54.0646 79.1179C53.9495 79.0618 53.8622 78.9826 53.8025 78.8803C53.7436 78.7773 53.7141 78.6559 53.7141 78.516C53.7141 78.3768 53.7432 78.255 53.8015 78.1506C53.8604 78.0455 53.947 77.9638 54.0614 77.9055C54.1757 77.8473 54.3164 77.8182 54.4833 77.8182H55.3025V80ZM54.1743 79.0114H54.6058L54.0752 80H53.6342L54.1743 79.0114Z" fill="white"/>
<rect y="73" width="68" height="2" fill="white"/>
<rect x="7" y="78" width="4" height="1" fill="white"/>
<rect x="57" y="78" width="4" height="1" fill="white"/>
<path d="M58.5 29.5C58.5 45.5775 47.0258 58.5 33 58.5C18.9742 58.5 7.5 45.5775 7.5 29.5C7.5 13.4225 18.9742 0.5 33 0.5C47.0258 0.5 58.5 13.4225 58.5 29.5Z" fill="#32353E" stroke="#FEFEFE"/>
<path d="M48.3291 50.0167H17.8291L18.8291 51.0167H47.3291L48.3291 50.0167Z" fill="#B1DAEF"/>
<path d="M15.3291 47.5167L15.8291 48.5167H49.8291L50.8291 47.5167H15.3291Z" fill="#B1DAEF"/>
<path d="M49.8291 43.5167H51.3291V26.0167H49.8291V43.5167Z" fill="#B1DAEF"/>
<path d="M48.8291 43.5167H46.8291V26.0167H48.8291V43.5167Z" fill="#B1DAEF"/>
<path d="M43.8291 43.5167H45.8291V26.5167H43.8291V43.5167Z" fill="#B1DAEF"/>
<path d="M40.8291 43.5167H42.8291V15.0167H40.8291V43.5167Z" fill="#B1DAEF"/>
<path d="M38.3291 43.5167H39.8291V15.5167H38.3291V43.5167Z" fill="#B1DAEF"/>
<path d="M35.8291 43.5167H37.3291V15.721H35.8291V43.5167Z" fill="#B1DAEF"/>
<path d="M32.3291 16.0167V32.5167L30.8291 31.5167V16.0167H32.3291Z" fill="#B1DAEF"/>
<path d="M33.3291 16.0167V33.0167L34.8291 34.0167V16.0167H33.3291Z" fill="#B1DAEF"/>
<path d="M22.8291 54.0167H43.3291L45.3291 52.5167H20.8291L22.8291 54.0167Z" fill="#B1DAEF"/>
<path d="M25.8291 55.0167H40.3291C40.8291 55.5167 35.4958 56.3501 32.8291 56.5167C27.6291 56.5167 25.9958 55.5167 25.8291 55.0167Z" fill="#B1DAEF"/>
<path d="M51.3291 46.0167L52.3291 44.5167H33.8291V38.5167H32.8291V46.0167H51.3291Z" fill="#EFEFEE"/>
<path d="M31.8291 46.0167H30.3291V38.5167H31.8291V46.0167Z" fill="#EFEFEE"/>
<path d="M29.3291 38.5167V46.0167H27.8291V38.5167H29.3291Z" fill="#EFEFEE"/>
<path d="M25.3291 46.0167H26.8291V38.5167H25.3291V46.0167Z" fill="#EFEFEE"/>
<path d="M24.3291 38.5167V46.0167H22.8291V38.5167H24.3291Z" fill="#EFEFEE"/>
<path d="M21.8291 38.5167V46.0167H20.3291V38.5167H21.8291Z" fill="#EFEFEE"/>
<path d="M19.3291 46.0167V38.5167H17.8291V44.5167H12.8291L14.3291 46.0167H19.3291Z" fill="#EFEFEE"/>
<path d="M17.8291 35.5167V37.0167H33.8291V35.0167L26.3291 31.5167L17.8291 35.5167Z" fill="#EFEFEE"/>
<path d="M17.3291 32.5167H15.8291V25.5167H17.3291V32.5167Z" fill="#EFEFEE"/>
<path d="M18.3291 25.5167V32.5167H19.8291V25.5167H18.3291Z" fill="#EFEFEE"/>
<path d="M20.3291 25.5167V32.5167H21.8291V25.5167H20.3291Z" fill="#EFEFEE"/>
<path d="M23.8291 31.0167L22.8291 32.0167V25.5167H23.8291V31.0167Z" fill="#EFEFEE"/>
<path d="M24.8291 25.5167V30.5167L25.8291 30.0167V25.5167H24.8291Z" fill="#EFEFEE"/>
<path d="M9.8291 37.0167H10.8291V32.5167H15.3291V24.0167C15.7291 21.2167 18.8291 19.1834 20.3291 18.5167V14.0167H21.3291V19.0167C24.5291 18.6167 26.6624 22.1834 27.3291 24.0167V30.0167L29.3291 31.0167V15.5167L42.8291 14.0167L46.3291 15.5167V25.5167L52.3291 25.0167L54.3291 26.0167V42.0167C55.9291 39.6167 56.6624 34.6834 56.8291 32.5167C58.0291 26.5167 55.3291 18.6834 53.8291 15.5167C49.0291 4.31672 37.8291 1.85002 32.8291 2.01667C23.6291 1.61667 16.3291 8.51667 13.8291 12.0167C7.8291 20.4167 8.66244 32.1833 9.8291 37.0167Z" fill="#E5EEF5"/>
<path d="M26.5 33L21 35.5H31.5L26.5 33Z" fill="#32353E"/>
</svg>
